<svg width="38" height="54" fill="none" xmlns="http://www.w3.org/2000/svg"><g clip-path="url(#clip0)"><path d="M25.73 5.417h.013-.013zm0 0l-6.771 16.25L32.5 29.515 12.188 48.75l6.77-16.25-13.541-7.854L25.73 5.416zm0-5.417c-1.523.033-2.787.593-3.735 1.492L1.69 20.708a5.41 5.41 0 0 0-1.652 4.566 5.409 5.409 0 0 0 2.66 4.057l9.43 5.474L7.183 46.67a5.424 5.424 0 0 0 5.002 7.502c1.349 0 2.69-.504 3.724-1.484L36.222 33.45a5.402 5.402 0 0 0 1.652-4.564 5.414 5.414 0 0 0-2.66-4.057l-9.43-5.465 4.845-11.627A5.42 5.42 0 0 0 25.729 0z" fill="url(#paint0_linear)"/><path d="M25.771 5.383l-6.77 16.25 13.541 7.85-20.313 19.234L19 32.467 5.46 24.613 25.77 5.383z" fill="#fff" filter="url(#filter0_d)"/></g><defs><filter id="filter0_d" x="2.459" y="2.383" width="33.083" height="49.333" filterUnits="userSpaceOnUse" color-interpolation-filters="sRGB"><feFlood flood-opacity="0" result="BackgroundImageFix"/><feColorMatrix in="SourceAlpha" values="0 0 0 0 0 0 0 0 0 0 0 0 0 0 0 0 0 0 127 0"/><feOffset/><feGaussianBlur stdDeviation="1.5"/><feColorMatrix values="0 0 0 0 0 0 0 0 0 0 0 0 0 0 0 0 0 0 0.3 0"/><feBlend in2="BackgroundImageFix" result="effect1_dropShadow"/><feBlend in="SourceGraphic" in2="effect1_dropShadow" result="shape"/></filter><linearGradient id="paint0_linear" x1="18.459" y1="-7.417" x2="18.956" y2="34.142" gradientUnits="userSpaceOnUse"><stop offset=".116" stop-color="#FF4646"/><stop offset="1" stop-color="#F90"/></linearGradient><clipPath id="clip0"><path fill="#fff" d="M0 0h38v54H0z"/></clipPath></defs></svg>
